<svg width="105" height="37" viewBox="0 0 105 37" fill="none" xmlns="http://www.w3.org/2000/svg">
<path d="M2.57812 34V33.2617L3.5332 33.0977V26.3418H1.59961L1.42969 27.5254H0.5625V25.4688H7.65234V27.5254H6.79688L6.62109 26.3418H4.6875V33.0977L5.64258 33.2617V34H2.57812ZM11.1129 34V33.2617L12.068 33.0977V26.377L11.1129 26.2129V25.4746H14.9156C15.5367 25.4746 16.0602 25.5684 16.4859 25.7559C16.9156 25.9395 17.2418 26.207 17.4645 26.5586C17.6871 26.9102 17.7984 27.3398 17.7984 27.8477C17.7984 28.3477 17.6891 28.7676 17.4703 29.1074C17.2555 29.4473 16.9488 29.7051 16.5504 29.8809C16.152 30.0527 15.6793 30.1445 15.1324 30.1562L13.2223 30.1914V33.0977L14.1773 33.2617V34H11.1129ZM16.7437 34L14.8453 29.7402L15.9996 29.7285L17.5758 33.1387L18.1676 33.2441V34H16.7437ZM13.2223 29.2832H14.7984C15.443 29.2832 15.9117 29.1602 16.2047 28.9141C16.4977 28.668 16.6441 28.3086 16.6441 27.8359C16.6441 27.3867 16.5035 27.0312 16.2223 26.7695C15.941 26.5078 15.5055 26.377 14.9156 26.377H13.2223V29.2832ZM21.5695 34V33.2617L22.2023 33.1738L25.1848 25.4688H26.175L29.1047 33.1738L29.7316 33.2617V34H27.2824V33.2617L27.927 33.1504L27.3645 31.5801H23.9484L23.3684 33.1504L24.0129 33.2617V34H21.5695ZM24.3059 30.6133H27.0129L25.759 27.1445L25.6887 26.9512H25.6535L25.5832 27.1445L24.3059 30.6133ZM34.8621 34L32.0027 26.3066L31.323 26.2129V25.4688H34.0184V26.2129L33.2391 26.3359L35.1492 31.7617L35.3484 32.4355H35.3836L35.5945 31.7617L37.575 26.3301L36.7078 26.2129V25.4688H39.3973V26.2129L38.7117 26.3066L35.8523 34H34.8621ZM42.6527 34V33.2617L43.6078 33.0977V26.377L42.6527 26.2129V25.4688H48.9691V27.5195H48.0434L47.9145 26.3594H44.7621V29.1367H47.9086V30.0449H44.7621V33.1328H48.102L48.2309 31.9551H49.1508V34H42.6527ZM52.7051 34V33.2617L53.6602 33.0977V26.377L52.7051 26.2129V25.4688H53.6602H54.8145H55.7695V26.2129L54.8145 26.377V33.1152H57.832L57.9668 31.7676H58.8516V34H52.7051ZM67.5832 34V33.2617L68.5383 33.0977V26.377L67.5832 26.2129V25.4688H68.5383H71.2629C72.1535 25.4688 72.8488 25.6621 73.3488 26.0488C73.8527 26.4316 74.1047 27.0078 74.1047 27.7773C74.1047 28.1562 73.9836 28.4961 73.7414 28.7969C73.5031 29.0938 73.1867 29.3145 72.7922 29.459C73.1359 29.5293 73.4309 29.668 73.677 29.875C73.923 30.0781 74.1125 30.3281 74.2453 30.625C74.382 30.918 74.4504 31.2402 74.4504 31.5918C74.4504 32.373 74.1965 32.9707 73.6887 33.3848C73.1809 33.7949 72.4934 34 71.6262 34H67.5832ZM69.6926 33.0977H71.6262C72.1535 33.0977 72.5617 32.9688 72.8508 32.7109C73.1438 32.4492 73.2902 32.0801 73.2902 31.6035C73.2902 31.2676 73.2355 30.9805 73.1262 30.7422C73.0207 30.5039 72.8566 30.3203 72.634 30.1914C72.4152 30.0625 72.1379 29.998 71.802 29.998H69.6926V33.0977ZM69.6926 29.0957H71.5617C71.9758 29.0957 72.3098 28.9766 72.5637 28.7383C72.8215 28.4961 72.9504 28.168 72.9504 27.7539C72.9504 27.293 72.8059 26.9492 72.5168 26.7227C72.2277 26.4922 71.8098 26.377 71.2629 26.377H69.6926V29.0957ZM77.7293 34V33.2617L78.6844 33.0977V26.377L77.7293 26.2129V25.4688H78.6844H79.8387H80.7937V26.2129L79.8387 26.377V33.1152H82.8562L82.991 31.7676H83.8758V34H77.7293ZM90.3129 34.123C89.7621 34.123 89.268 34.0176 88.8305 33.8066C88.393 33.5957 88.0199 33.2988 87.7113 32.916C87.4066 32.5293 87.1723 32.0723 87.0082 31.5449C86.848 31.0176 86.768 30.4355 86.768 29.7988V29.6758C86.768 29.043 86.848 28.4629 87.0082 27.9355C87.1723 27.4043 87.4066 26.9453 87.7113 26.5586C88.0199 26.1719 88.393 25.873 88.8305 25.6621C89.268 25.4512 89.7621 25.3457 90.3129 25.3457C90.8949 25.3457 91.4066 25.4512 91.848 25.6621C92.2895 25.873 92.6586 26.1719 92.9555 26.5586C93.2562 26.9453 93.4828 27.4043 93.6352 27.9355C93.7875 28.4629 93.8637 29.043 93.8637 29.6758V29.7988C93.8637 30.4355 93.7875 31.0176 93.6352 31.5449C93.4828 32.0723 93.2562 32.5293 92.9555 32.916C92.6586 33.2988 92.2895 33.5957 91.848 33.8066C91.4066 34.0176 90.8949 34.123 90.3129 34.123ZM90.3129 33.1621C90.8793 33.1621 91.3363 33.0215 91.684 32.7402C92.0355 32.459 92.2934 32.0664 92.4574 31.5625C92.6215 31.0547 92.7035 30.4668 92.7035 29.7988V29.6641C92.7035 29 92.6195 28.418 92.4516 27.918C92.2875 27.4141 92.0297 27.0215 91.6781 26.7402C91.3266 26.4551 90.8715 26.3125 90.3129 26.3125C89.8012 26.3125 89.3676 26.4551 89.0121 26.7402C88.6566 27.0254 88.3871 27.4199 88.2035 27.9238C88.0199 28.4238 87.9281 29.0039 87.9281 29.6641V29.7988C87.9281 30.4629 88.0199 31.0488 88.2035 31.5566C88.3871 32.0605 88.6566 32.4551 89.0121 32.7402C89.3676 33.0215 89.8012 33.1621 90.3129 33.1621ZM101.332 34.123C100.543 34.123 99.8594 33.9414 99.2812 33.5781C98.7031 33.2109 98.2578 32.7031 97.9453 32.0547C97.6328 31.4062 97.4766 30.6562 97.4766 29.8047V29.6641C97.4766 28.8047 97.6328 28.0527 97.9453 27.4082C98.2617 26.7598 98.6934 26.2539 99.2402 25.8906C99.7871 25.5273 100.408 25.3457 101.104 25.3457C101.768 25.3457 102.33 25.4219 102.791 25.5742C103.256 25.7266 103.652 25.9316 103.98 26.1895V27.9121H103.031L102.908 26.6758C102.717 26.5508 102.482 26.457 102.205 26.3945C101.928 26.3281 101.6 26.2949 101.221 26.2949C100.732 26.2949 100.293 26.4355 99.9023 26.7168C99.5117 26.998 99.2031 27.3906 98.9766 27.8945C98.75 28.3945 98.6367 28.9805 98.6367 29.6523V29.8047C98.6367 30.4844 98.7402 31.0781 98.9473 31.5859C99.1582 32.0898 99.4648 32.4824 99.8672 32.7637C100.27 33.041 100.758 33.1797 101.332 33.1797C101.723 33.1797 102.053 33.1465 102.322 33.0801C102.592 33.0098 102.83 32.9199 103.037 32.8105V30.8066L101.402 30.748V29.8984H104.191V33.2031C103.945 33.4336 103.592 33.6445 103.131 33.8359C102.674 34.0273 102.074 34.123 101.332 34.123Z" fill="white"/>
<path d="M29.4746 13V12.2617L30.4297 12.0977V5.37695L29.4746 5.21289V4.47461H33.2773C33.8984 4.47461 34.4219 4.56836 34.8477 4.75586C35.2773 4.93945 35.6035 5.20703 35.8262 5.55859C36.0488 5.91016 36.1602 6.33984 36.1602 6.84766C36.1602 7.34766 36.0508 7.76758 35.832 8.10742C35.6172 8.44727 35.3105 8.70508 34.9121 8.88086C34.5137 9.05273 34.041 9.14453 33.4941 9.15625L31.584 9.19141V12.0977L32.5391 12.2617V13H29.4746ZM35.1055 13L33.207 8.74023L34.3613 8.72852L35.9375 12.1387L36.5293 12.2441V13H35.1055ZM31.584 8.2832H33.1602C33.8047 8.2832 34.2734 8.16016 34.5664 7.91406C34.8594 7.66797 35.0059 7.30859 35.0059 6.83594C35.0059 6.38672 34.8652 6.03125 34.584 5.76953C34.3027 5.50781 33.8672 5.37695 33.2773 5.37695H31.584V8.2832ZM39.9312 13V12.2617L40.5641 12.1738L43.5465 4.46875H44.5367L47.4664 12.1738L48.0934 12.2617V13H45.6441V12.2617L46.2887 12.1504L45.7262 10.5801H42.3102L41.7301 12.1504L42.3746 12.2617V13H39.9312ZM42.6676 9.61328H45.3746L44.1207 6.14453L44.0504 5.95117H44.0152L43.9449 6.14453L42.6676 9.61328ZM51.384 13V12.2617L52.3391 12.0977V5.37695L51.384 5.21289V4.46875H57.8V6.51953H56.8742L56.7453 5.36523H53.4934V8.31836H56.6164V9.22656H53.4934V12.0977L54.4484 12.2617V13H51.384ZM61.1434 13V12.2617L62.0984 12.0977V5.37695L61.1434 5.21289V4.46875H64.2078V5.21289L63.2527 5.37695V12.0977L64.2078 12.2617V13H61.1434ZM69.5902 10.5332L68.975 9.81836L73.0238 5.32422L73.0473 5.29492L72.4086 5.21289V4.46875H75.1449V5.21289L74.3422 5.35938L69.5902 10.5332ZM67.5629 13V12.2617L68.518 12.0977V5.37695L67.5629 5.21289V4.46875H70.6273V5.21289L69.6723 5.37695V12.0977L70.6273 12.2617V13H67.5629ZM72.602 13V12.2617L73.3051 12.1797L73.2992 12.1738L70.9379 8.89844L71.5824 7.99023L74.6645 12.1152L75.4496 12.2617V13H72.602Z" fill="white"/>
<path d="M22 18H82V19H22V18Z" fill="white"/>
</svg>
